<svg width="24" height="24" viewBox="0 0 24 24" fill="none" xmlns="http://www.w3.org/2000/svg">
  <!-- Option D: Clear brain outline + node network inside + gravity well -->

  <!-- Brain outline - left hemisphere (classic bumpy brain shape) -->
  <path d="M12 3.5 C10.5 3.5 9.2 4.2 8.5 5.3 C7.5 4.8 6.2 5 5.5 5.8 C4.5 6.8 4.2 8 4.8 9.2 C3.8 10 3.5 11.5 4.2 12.8 C3.8 13.8 4.2 15 5 15.8 C5.2 16.8 6 17.5 7 17.5 C7.8 18.2 9 18.5 10 18.2 C10.8 18.8 11.5 19 12 19" 
        stroke="white" stroke-width="1.5" stroke-linecap="round" fill="none"/>
  <!-- Brain outline - right hemisphere -->
  <path d="M12 3.5 C13.5 3.5 14.8 4.2 15.5 5.3 C16.5 4.8 17.8 5 18.5 5.8 C19.5 6.8 19.8 8 19.2 9.2 C20.2 10 20.5 11.5 19.8 12.8 C20.2 13.8 19.8 15 19 15.8 C18.8 16.8 18 17.5 17 17.5 C16.2 18.2 15 18.5 14 18.2 C13.2 18.8 12.5 19 12 19" 
        stroke="white" stroke-width="1.5" stroke-linecap="round" fill="none"/>
  <!-- Brain center line -->
  <line x1="12" y1="4" x2="12" y2="18" stroke="white" stroke-width="0.5" opacity="0.3"/>

  <!-- Node network inside brain -->
  <circle cx="9" cy="7.5" r="0.9" fill="white"/>
  <circle cx="15" cy="7.5" r="0.9" fill="white"/>
  <circle cx="7" cy="11" r="0.8" fill="white"/>
  <circle cx="12" cy="10" r="0.9" fill="white"/>
  <circle cx="17" cy="11" r="0.8" fill="white"/>
  <circle cx="9" cy="14" r="0.8" fill="white"/>
  <circle cx="15" cy="14" r="0.8" fill="white"/>
  <circle cx="12" cy="16.5" r="0.7" fill="white"/>
  <!-- Node connections -->
  <line x1="9" y1="7.5" x2="12" y2="10" stroke="white" stroke-width="0.5" opacity="0.7"/>
  <line x1="15" y1="7.5" x2="12" y2="10" stroke="white" stroke-width="0.5" opacity="0.7"/>
  <line x1="7" y1="11" x2="12" y2="10" stroke="white" stroke-width="0.5" opacity="0.7"/>
  <line x1="17" y1="11" x2="12" y2="10" stroke="white" stroke-width="0.5" opacity="0.7"/>
  <line x1="7" y1="11" x2="9" y2="14" stroke="white" stroke-width="0.5" opacity="0.7"/>
  <line x1="17" y1="11" x2="15" y2="14" stroke="white" stroke-width="0.5" opacity="0.7"/>
  <line x1="9" y1="14" x2="12" y2="16.5" stroke="white" stroke-width="0.5" opacity="0.7"/>
  <line x1="15" y1="14" x2="12" y2="16.5" stroke="white" stroke-width="0.5" opacity="0.7"/>
  <line x1="9" y1="14" x2="15" y2="14" stroke="white" stroke-width="0.4" opacity="0.5"/>
  <line x1="9" y1="7.5" x2="15" y2="7.5" stroke="white" stroke-width="0.4" opacity="0.5"/>

  <!-- Gravity well / anti-gravity waves below -->
  <ellipse cx="12" cy="22" rx="6" ry="1.3" stroke="white" stroke-width="0.6" fill="none" opacity="0.35"/>
  <ellipse cx="12" cy="22" rx="3.5" ry="0.7" stroke="white" stroke-width="0.5" fill="none" opacity="0.25"/>
  <!-- Float connection -->
  <line x1="12" y1="19" x2="12" y2="20.5" stroke="white" stroke-width="0.5" stroke-dasharray="1 1" opacity="0.3"/>
</svg>
