<svg width="24" height="24" viewBox="0 0 24 24" fill="none" xmlns="http://www.w3.org/2000/svg">
  <!-- Option A: Floating Brain + Up Arrow -->
  <!-- Brain left hemisphere -->
  <path d="M12 5C10 5 8.8 6 8 7.2C7 6.3 5.5 6.5 4.5 7.5C3.7 8.3 3.5 9.5 4.2 10.5C3.3 11.5 3.2 13 4 14.2C3.5 15 4 16.3 5.2 16.8C5.3 18 6.5 18.8 7.8 18.5C8.8 19.3 10.5 19.3 11.5 18.8" stroke="white" stroke-width="1.4" stroke-linecap="round" fill="none"/>
  <!-- Brain right hemisphere -->
  <path d="M12 5C14 5 15.2 6 16 7.2C17 6.3 18.5 6.5 19.5 7.5C20.3 8.3 20.5 9.5 19.8 10.5C20.7 11.5 20.8 13 20 14.2C20.5 15 20 16.3 18.8 16.8C18.7 18 17.5 18.8 16.2 18.5C15.2 19.3 13.5 19.3 12.5 18.8" stroke="white" stroke-width="1.4" stroke-linecap="round" fill="none"/>
  <!-- Up arrow (anti-gravity) -->
  <line x1="12" y1="23" x2="12" y2="20" stroke="white" stroke-width="1.2" stroke-linecap="round"/>
  <polyline points="10,21.5 12,20 14,21.5" stroke="white" stroke-width="1.2" stroke-linecap="round" stroke-linejoin="round" fill="none"/>
  <!-- Glow dots -->
  <circle cx="9" cy="22.5" r="0.5" fill="white" opacity="0.3"/>
  <circle cx="15" cy="22.5" r="0.5" fill="white" opacity="0.3"/>
</svg>
