<svg width="24" height="24" viewBox="0 0 24 24" fill="none" xmlns="http://www.w3.org/2000/svg">
  <!-- Option B: Circuit Brain + Sparkle Stars -->
  <!-- Brain left hemisphere -->
  <path d="M12 4C10 4 8.5 5.2 7.8 6.8C6.8 6 5.3 6.2 4.5 7.2C3.8 8.2 4 9.5 4.8 10.3C3.8 11.3 3.5 12.8 4.3 14C3.8 14.8 4 16.2 5.2 16.8C5.2 18 6.5 19 8 18.5C9 19.3 11 19.3 12 18.5" stroke="white" stroke-width="1.3" stroke-linecap="round" fill="none"/>
  <!-- Brain right hemisphere -->
  <path d="M12 4C14 4 15.5 5.2 16.2 6.8C17.2 6 18.7 6.2 19.5 7.2C20.2 8.2 20 9.5 19.2 10.3C20.2 11.3 20.5 12.8 19.7 14C20.2 14.8 20 16.2 18.8 16.8C18.8 18 17.5 19 16 18.5C15 19.3 13 19.3 12 18.5" stroke="white" stroke-width="1.3" stroke-linecap="round" fill="none"/>
  <!-- Circuit nodes inside brain -->
  <circle cx="8" cy="10" r="1" fill="white"/>
  <circle cx="16" cy="10" r="1" fill="white"/>
  <circle cx="12" cy="8" r="1" fill="white"/>
  <circle cx="10" cy="14" r="0.8" fill="white"/>
  <circle cx="14" cy="14" r="0.8" fill="white"/>
  <!-- Circuit connections -->
  <line x1="8" y1="10" x2="12" y2="8" stroke="white" stroke-width="0.7"/>
  <line x1="12" y1="8" x2="16" y2="10" stroke="white" stroke-width="0.7"/>
  <line x1="10" y1="14" x2="14" y2="14" stroke="white" stroke-width="0.7"/>
  <line x1="8" y1="10" x2="10" y2="14" stroke="white" stroke-width="0.5"/>
  <line x1="16" y1="10" x2="14" y2="14" stroke="white" stroke-width="0.5"/>
  <!-- Sparkle stars -->
  <path d="M6 3L6.5 4L7 3L6.5 2Z" fill="white" opacity="0.7"/>
  <path d="M18 2.5L18.4 3.3L19 2.5L18.4 1.7Z" fill="white" opacity="0.6"/>
  <circle cx="14" cy="2" r="0.5" fill="white" opacity="0.5"/>
</svg>
